<?xml version="1.0" encoding="utf-8"?>
<!-- Generator: Adobe Illustrator 16.0.0, SVG Export Plug-In . SVG Version: 6.00 Build 0)  -->
<!DOCTYPE svg PUBLIC "-//W3C//DTD SVG 1.1//EN" "http://www.w3.org/Graphics/SVG/1.1/DTD/svg11.dtd">
<svg version="1.1" id="Layer_1" xmlns="http://www.w3.org/2000/svg" xmlns:xlink="http://www.w3.org/1999/xlink" x="0px" y="0px"
	 width="602px" height="602px" viewBox="0 0 602 602" enable-background="new 0 0 602 602" xml:space="preserve">
<path fill="none" stroke="#010101" stroke-width="4" stroke-miterlimit="10" d="M320.5,541c0,0-31-195-16.986-208
	c8.55-7.932,11.986-214,4.342-241.005S246.5,73,256.5,133s158-21,134,44s-204.929-64.477-181.929-0.477S397.5,194,389.5,249
	s-297-73-167,0s212.826,2.174,164,51c-62,62-301-113-171-10c64.504,44.518,113.964,81.022,171.958,65.459
	C457.133,336.76,497.5,306,471.895,354.023C417.109,454.759,292.5,440,232.5,373c-90-105-146-98-44,14
	c247.762,177.443,303.93-32.941,319-18c18.306,18.148-57.997,93-126,106c-95.548,18.266-219.401-68.004-244-97
	c0,0-88-101-13.426,6.694C393.074,635.694,517.5,424,532.5,370s93,20-35,111c-349,161-420-201-456-168c-44,105,276,251,276,251"/>
</svg>
