<?xml version="1.0" encoding="utf-8"?>
<!-- Generator: Adobe Illustrator 16.0.0, SVG Export Plug-In . SVG Version: 6.00 Build 0)  -->
<!DOCTYPE svg PUBLIC "-//W3C//DTD SVG 1.1//EN" "http://www.w3.org/Graphics/SVG/1.1/DTD/svg11.dtd">
<svg version="1.1" id="Layer_1" xmlns="http://www.w3.org/2000/svg" xmlns:xlink="http://www.w3.org/1999/xlink" x="0px" y="0px"
	 width="602px" height="602px" viewBox="0 0 602 602" enable-background="new 0 0 602 602" xml:space="preserve">
<path fill="none" stroke="#010101" stroke-width="4" stroke-miterlimit="10" d="M315,493c0,0-84-58-145-77s223,50,254,11
	s-326-28-306-42s361,12,353-17s-356-4-341-45s363,57,361,10s-149-1-159-13"/>
<path fill="none" stroke="#010101" stroke-width="4" stroke-miterlimit="10" d="M311,291c0,0,6-16-31-24s-23-29,9-21s53,26,60,17
	s-65-23-87-42s-12.151-34-4.076-27S367,259,371,233s-84-25.502-86-40.751s83.266,24.249,86.133,0S319,162,316,165
	c-19-11-25,92,1,200c8,84,7,169,6,172"/>
</svg>
